<svg width="133" height="154" fill="none" xmlns="http://www.w3.org/2000/svg"><path d="M44.78 67.287h-5.256v3.938h6.144V73h-8.367V60.203h8.305v1.793h-6.082v3.533h5.256v1.758zm5.907-.668l1.81-3.129h2.373l-2.91 4.685L54.968 73H52.61l-1.898-3.252L48.823 73H46.45l3.006-4.825-2.9-4.685h2.355l1.776 3.13zm13.965 1.723c0 1.47-.334 2.645-1.002 3.524-.668.873-1.564 1.31-2.69 1.31-1.042 0-1.877-.343-2.504-1.029v4.51H56.32V63.49h1.97l.087.967c.627-.762 1.48-1.142 2.558-1.142 1.16 0 2.068.433 2.724 1.3.662.862.993 2.06.993 3.595v.132zm-2.127-.185c0-.949-.19-1.702-.57-2.259-.376-.556-.915-.834-1.618-.834-.873 0-1.5.36-1.88 1.08v4.22c.386.738 1.019 1.107 1.898 1.107.68 0 1.21-.273 1.59-.818.387-.55.58-1.383.58-2.496zM68.74 73h-2.136V59.5h2.136V73zm1.934-4.843c0-.931.184-1.77.554-2.513.369-.75.887-1.325 1.555-1.723.668-.404 1.436-.606 2.303-.606 1.283 0 2.323.413 3.12 1.239.803.826 1.236 1.922 1.3 3.287l.01.5c0 .938-.182 1.776-.545 2.515a3.959 3.959 0 01-1.547 1.713c-.668.405-1.442.607-2.32.607-1.342 0-2.417-.445-3.226-1.336-.803-.897-1.204-2.089-1.204-3.577v-.106zm2.136.185c0 .978.202 1.746.606 2.302.404.551.967.827 1.688.827.72 0 1.28-.282 1.678-.844.404-.563.607-1.386.607-2.47 0-.96-.208-1.722-.624-2.285-.41-.562-.97-.844-1.679-.844-.697 0-1.251.279-1.661.835-.41.551-.615 1.377-.615 2.479zm13.49-2.9a5.282 5.282 0 00-.87-.07c-.978 0-1.637.374-1.977 1.124V73h-2.136v-9.51h2.04l.052 1.064c.516-.827 1.23-1.24 2.145-1.24.304 0 .556.041.756.123l-.01 2.004zm5.362 7.734c-1.353 0-2.452-.425-3.296-1.275-.838-.855-1.257-1.992-1.257-3.41v-.263c0-.95.182-1.796.545-2.54.37-.75.885-1.334 1.547-1.75a4.078 4.078 0 012.215-.623c1.295 0 2.294.413 2.997 1.239.71.826 1.064 1.995 1.064 3.507v.86h-6.214c.064.786.325 1.407.782 1.864.463.457 1.043.686 1.74.686.979 0 1.776-.396 2.39-1.187l1.152 1.099c-.38.568-.89 1.01-1.53 1.327-.632.31-1.344.466-2.135.466zm-.255-8.148c-.586 0-1.06.205-1.424.616-.357.41-.585.981-.685 1.713h4.07V67.2c-.048-.715-.238-1.254-.572-1.617-.334-.37-.797-.554-1.389-.554z" fill="#FFBA00"/><circle cx="66.5" cy="66.5" r="65.5" stroke="#FFBA00" stroke-width="2"/><path d="M66 92v60m0 0l8-8.531M66 152l-8-8.531" stroke="#FFBA00" stroke-width="2"/></svg>