<svg width="25" height="25" fill="none" xmlns="http://www.w3.org/2000/svg"><path d="M.005 25l1.69-6.21A12.442 12.442 0 010 12.5C0 5.596 5.596 0 12.5 0S25 5.596 25 12.5 19.404 25 12.5 25a12.443 12.443 0 01-6.287-1.694L.005 25zM7.989 6.635c-.162.01-.32.053-.464.125-.136.077-.26.173-.367.285-.15.141-.235.264-.327.383a3.411 3.411 0 00-.706 2.097c.003.612.163 1.209.413 1.766C7.048 12.42 7.89 13.613 9 14.72c.268.266.529.534.81.782a11.809 11.809 0 004.8 2.558l.711.108c.232.013.463-.005.695-.016.365-.019.72-.117 1.042-.288.163-.085.323-.177.479-.276 0 0 .053-.035.156-.112.169-.125.272-.214.412-.36.104-.107.194-.234.263-.377.097-.204.195-.593.235-.917.03-.247.021-.382.017-.466-.005-.134-.116-.273-.237-.331l-.728-.326s-1.087-.474-1.751-.777a.623.623 0 00-.221-.051.602.602 0 00-.473.159v-.003c-.006 0-.09.072-.994 1.167a.437.437 0 01-.46.162 1.78 1.78 0 01-.238-.082c-.155-.066-.209-.09-.315-.137l-.007-.002a7.511 7.511 0 01-1.962-1.25c-.157-.138-.304-.288-.454-.433a7.867 7.867 0 01-1.275-1.585l-.073-.118a1.154 1.154 0 01-.128-.257c-.047-.184.076-.331.076-.331s.304-.332.445-.512a5.38 5.38 0 00.329-.467c.148-.237.194-.481.116-.67-.35-.855-.712-1.706-1.085-2.551-.073-.167-.292-.287-.491-.311a4.601 4.601 0 00-.202-.02 4.231 4.231 0 00-.504.005v.001z" fill="#8098AB"/></svg>